<svg id="visual" viewBox="0 0 900 600" width="900" height="600" xmlns="http://www.w3.org/2000/svg" xmlns:xlink="http://www.w3.org/1999/xlink" version="1.1"><rect x="0" y="0" width="900" height="600" fill="#fff"></rect><path d="M0 224L11.5 208.7C23 193.3 46 162.7 69 160.3C92 158 115 184 138.2 206.5C161.3 229 184.7 248 207.8 234.5C231 221 254 175 277 160C300 145 323 161 346 181C369 201 392 225 415.2 221.2C438.3 217.3 461.7 185.7 484.8 166C508 146.3 531 138.7 554 140.7C577 142.7 600 154.3 623 166.3C646 178.3 669 190.7 692.2 180C715.3 169.3 738.7 135.7 761.8 122.2C785 108.7 808 115.3 831 133.8C854 152.3 877 182.7 888.5 197.8L900 213L900 0L888.5 0C877 0 854 0 831 0C808 0 785 0 761.8 0C738.7 0 715.3 0 692.2 0C669 0 646 0 623 0C600 0 577 0 554 0C531 0 508 0 484.8 0C461.7 0 438.3 0 415.2 0C392 0 369 0 346 0C323 0 300 0 277 0C254 0 231 0 207.8 0C184.7 0 161.3 0 138.2 0C115 0 92 0 69 0C46 0 23 0 11.5 0L0 0Z" fill="#f2f2f2" stroke-linecap="round" stroke-linejoin="miter"></path></svg>